<?xml version="1.0" ?><!DOCTYPE svg  PUBLIC '-//W3C//DTD SVG 1.1//EN'  'http://www.w3.org/Graphics/SVG/1.1/DTD/svg11.dtd'><svg enable-background="new 0 0 501.872 326.793" height="326.793" id="Layer_1" overflow="visible" version="1.1" viewBox="0 0 501.872 326.793" width="501.872" xml:space="preserve" xmlns="http://www.w3.org/2000/svg" xmlns:xlink="http://www.w3.org/1999/xlink"><g><g><path class="icon" clip-rule="evenodd" d="M271.396,179.194c-4.707,0-9.413,0.316-13.491,1.256    c-7.525,2.196-13.484,6.899-13.484,16.94c0,7.839,4.08,13.177,10.975,13.177c0.948,0,1.885-0.312,2.51-0.312    c4.078-0.956,7.848-3.78,10.044-8.161c3.758-6.277,3.447-11.92,3.447-19.131V179.194z M423.295,143.786    c0,0,9.529-128.362-108.072-142.995C214.42-9.505,183.752,84.17,183.752,84.17s-30.354-29.196-71.542-5.351    c-36.853,22.762-30.346,64.424-30.346,64.424S0,159.148,0,242.61c1.836,83.345,88.909,84.184,88.909,84.184h320.295    c0,0,81.035,0.082,92.416-79.203C507.041,160.877,423.295,143.786,423.295,143.786z M269.199,149.088    c-2.196-3.136-6.271-4.71-10.035-4.71h-1.26c-6.271,0.629-11.917,4.082-13.484,10.986c-0.314,1.557-1.251,3.131-3.139,3.441    l-17.561-2.195c-1.256-0.313-3.141-1.246-2.513-3.758c3.764-19.766,20.704-26.671,36.696-27.599h3.768    c8.783,0,20.078,2.513,27.289,9.095c8.781,8.145,7.839,19.125,7.839,31.046v28.226c0,8.474,3.456,12.237,6.896,16.635    c0.948,1.557,1.263,3.441-0.312,4.698c-3.443,3.13-10.031,8.778-13.802,11.92c-1.25,0.934-2.818,0.934-4.389,0.312    c-5.954-5.015-6.899-7.217-10.347-11.926c-5.966,6.282-10.978,9.729-16.943,11.614c-3.755,0.934-7.839,1.568-12.854,1.568    c-15.062,0-26.979-9.407-26.979-27.922c0-14.738,7.845-24.773,19.448-29.477c5.956-2.83,13.171-4.075,20.384-5.026    c4.706-0.622,9.413-0.934,13.491-1.239v-2.513C271.396,157.873,271.706,152.853,269.199,149.088z M316.7,247.907    c-1.827,1.464-3.77,2.783-5.712,3.942l-0.087,0.058c-14.819,9.314-33.924,15.015-50.81,15.396    c-0.533,0.012-1.058,0.022-1.576,0.022c-26.547-0.011-46.287-14.542-64.301-30.18c-0.87-0.691-1.498-1.758-1.496-2.923    c-0.005-0.893,0.379-1.775,1.023-2.38c0.643-0.605,1.525-0.929,2.393-0.929c0.674,0,1.352,0.185,2.023,0.536    c19.197,10.652,38.218,21.465,61.527,21.454c0.536,0,1.081,0,1.625-0.018c14.826-0.317,30.844-3.942,46.096-10.127v-0.018    l1.403-0.56l1.083-0.449c0.727-0.312,1.508-0.663,2.271-0.969c0.677-0.316,1.403-0.483,2.109-0.478c2.23,0,4.303,1.648,4.34,4.086    C318.625,245.745,317.842,247.059,316.7,247.907z M325.409,254.35c-0.737,0.576-1.591,0.975-2.599,0.985h-0.026    c-0.675,0-1.47-0.229-2.087-0.818c-0.634-0.588-0.931-1.47-0.916-2.201c0-0.502,0.104-0.957,0.265-1.378    c0.689-1.815,1.727-4.548,2.582-7.274c0.868-2.72,1.514-5.51,1.496-7.015c0.006-0.397-0.046-0.674-0.078-0.783    c-0.022-0.018-0.065-0.041-0.118-0.063c-0.164-0.081-0.461-0.185-0.853-0.266c-0.784-0.173-1.922-0.259-3.199-0.254    c-1.798,0-3.873,0.162-5.827,0.375c-2.277,0.322-4.225,0.513-5.563,0.796l-0.104,0.017l-0.13,0.012    c-0.136,0.023-0.285,0.028-0.446,0.028c-0.675,0-1.447-0.178-2.104-0.714c-0.669-0.536-1.063-1.441-1.043-2.226    c0.046-1.446,0.841-2.386,1.789-3.101c1.531-1.106,3.18-2.046,4.992-2.796l-0.003-0.068l1.545-0.502l0.049-0.023l2.735-0.91    l0.006,0.179c2.712-0.594,5.418-0.824,7.867-0.824c3.413,0.012,6.243,0.409,8.186,1.158c0.656,0.288,1.256,0.548,1.885,1.233    l0.074,0.093l0.063,0.086c0.617,0.939,0.938,2.063,0.992,3.551v0.006l0.017,0.894C334.762,238.154,332.353,248.108,325.409,254.35    z" fill="#636667" fill-rule="evenodd"/></g></g></svg>